<?xml version="1.0" standalone="no"?><!DOCTYPE svg PUBLIC "-//W3C//DTD SVG 1.1//EN" "http://www.w3.org/Graphics/SVG/1.1/DTD/svg11.dtd"><svg t="1647960990212" class="icon" viewBox="0 0 1024 1024" version="1.1" xmlns="http://www.w3.org/2000/svg" p-id="2359" xmlns:xlink="http://www.w3.org/1999/xlink" width="48" height="48"><defs><style type="text/css">@font-face { font-family: feedback-iconfont; src: url("//at.alicdn.com/t/font_1031158_u69w8yhxdu.woff2?t=1630033759944") format("woff2"), url("//at.alicdn.com/t/font_1031158_u69w8yhxdu.woff?t=1630033759944") format("woff"), url("//at.alicdn.com/t/font_1031158_u69w8yhxdu.ttf?t=1630033759944") format("truetype"); }
</style></defs><path d="M510.122667 458.24m-313.002667 0a313.002667 313.002667 0 1 0 626.005333 0 313.002667 313.002667 0 1 0-626.005333 0Z" fill="#EDF4FF" p-id="2360"></path><path d="M953.685333 860.842667l-204.8-290.133334a11.093333 11.093333 0 0 0-18.432 0l-74.410666 105.472 130.730666 185.514667a11.434667 11.434667 0 0 1-9.386666 17.92h167.253333a11.434667 11.434667 0 0 0 9.045333-18.773333z" fill="#96DDFF" p-id="2361"></path><path d="M831.146667 710.314667l-30.890667 30.890666L750.933333 692.053333a17.92 17.92 0 0 0-12.8-5.461333 18.602667 18.602667 0 0 0-12.8 5.461333l-26.624 26.624-29.525333-41.984 68.266667-97.962666z" fill="#EDF4FF" p-id="2362"></path><path d="M366.421333 672.768l-72.533333-102.4a11.093333 11.093333 0 0 0-18.432 0l-204.8 290.133333a11.434667 11.434667 0 0 0 9.386667 17.92h163.498666a11.264 11.264 0 0 1-9.216-17.92z" fill="#96DDFF" p-id="2363"></path><path d="M192.853333 710.314667l30.890667 30.890666L273.066667 692.053333a17.92 17.92 0 0 1 12.8-5.461333 18.602667 18.602667 0 0 1 12.8 5.461333l26.624 26.624 29.525333-41.984-69.12-97.962666z" fill="#EDF4FF" p-id="2364"></path><path d="M953.685333 860.842667l-55.125333-78.165334a657.066667 657.066667 0 0 1-143.018667 34.133334l30.890667 43.690666a11.434667 11.434667 0 0 1-9.386667 17.92h167.253334a11.434667 11.434667 0 0 0 9.386666-17.578666zM265.045333 816.64a650.410667 650.410667 0 0 1-139.605333-34.133333l-55.125333 78.336a11.434667 11.434667 0 0 0 9.386666 17.92h163.498667a11.264 11.264 0 0 1-9.216-17.92z" fill="#69BAF9" p-id="2365"></path><path d="M500.906667 481.962667l-266.922667 378.88a11.264 11.264 0 0 0 9.216 17.92h533.845333a11.434667 11.434667 0 0 0 9.386667-17.92l-266.922667-378.88a11.264 11.264 0 0 0-18.602666 0z" fill="#79DEB4" p-id="2366"></path><path d="M731.989333 783.530667a1127.424 1127.424 0 0 1-221.866666 21.504 1129.984 1129.984 0 0 1-221.866667-21.504l-54.272 77.312a11.264 11.264 0 0 0 9.216 17.92h533.845333a11.434667 11.434667 0 0 0 9.386667-17.92z" fill="#62CCA1" p-id="2367"></path><path d="M628.906667 637.44l-54.954667 54.954667L512 630.442667l-59.221333 59.221333L395.093333 631.466667l105.813334-150.016a11.264 11.264 0 0 1 18.602666 0z" fill="#EDF4FF" p-id="2368"></path><path d="M510.122667 403.456h124.928l-33.962667-45.397333 33.962667-45.397334h-124.928v90.794667z" fill="#F6716F" p-id="2369"></path><path d="M967.168 851.285333L800.256 614.4a329.557333 329.557333 0 1 0-578.56 3.072l-164.864 233.813333a27.818667 27.818667 0 0 0 22.869333 44.032h864.597334a27.818667 27.818667 0 0 0 22.869333-44.032z m-682.666667-265.728l61.44 87.210667-27.306666 38.741333-22.186667-22.186666a17.066667 17.066667 0 0 0-11.776-4.949334 17.066667 17.066667 0 0 0-11.776 4.949334L228.010667 733.866667l-28.330667-27.818667z m317.098667-256l-13.994667 18.773334a17.066667 17.066667 0 0 0 0 19.968l13.994667 18.773333h-74.752V329.386667z m-91.648 168.277334l97.109333 137.898666-33.28 33.28-50.176-50.176a17.066667 17.066667 0 0 0-23.552 0L452.778667 665.6l-36.010667-36.010667z m-112.810667 160.085333l43.690667 43.690667a17.066667 17.066667 0 0 0 23.552 0L512 653.994667l50.176 50.176a17.066667 17.066667 0 0 0 23.552 0l40.96-41.130667 140.288 198.997333H253.44z m278.698667 17.066667l63.317333-89.770667 85.333334 120.490667L795.989333 733.866667 750.933333 689.322667a17.066667 17.066667 0 0 0-11.776-4.949334 17.066667 17.066667 0 0 0-11.776 4.949334l-24.234666 24.405333z m-461.994667-216.746667a296.277333 296.277333 0 1 1 564.736 125.269333l-17.066666-23.381333a29.013333 29.013333 0 0 0-45.738667 0l-60.757333 86.186667-122.026667-174.08a24.746667 24.746667 0 0 0-6.144-5.802667v-46.250667h108.202667a17.066667 17.066667 0 0 0 13.482666-26.624L621.738667 358.4 648.533333 322.730667a17.066667 17.066667 0 0 0-13.312-26.624h-125.098666a17.066667 17.066667 0 0 0-17.066667 17.066666v153.6a22.698667 22.698667 0 0 0-6.314667 5.802667l-120.832 170.666667L307.2 560.128a29.013333 29.013333 0 0 0-45.738667 0l-18.602666 26.282667a296.448 296.448 0 0 1-29.013334-128.170667zM180.394667 733.866667l35.84 35.84a17.066667 17.066667 0 0 0 23.552 0l45.056-44.885334 14.506666 14.506667-79.018666 112.128a28.16 28.16 0 0 0-4.437334 10.752H89.770667z m623.957333 128.341333a27.818667 27.818667 0 0 0-4.266667-10.752l-77.482666-109.909333 17.066666-17.066667L785.066667 769.536a17.066667 17.066667 0 0 0 23.552 0l35.84-35.84 90.624 128.341333z" fill="#3D3D63" p-id="2370"></path></svg>